<svg width="444" height="302" viewBox="0 0 444 302" fill='transparent' xmlns="http://www.w3.org/2000/svg">
<rect width="444" height="302" fill='transparent'/>
<path d="M208.799 272.07L116.174 162.678C110.609 156.106 110.609 145.45 116.174 138.878L136.326 115.077C141.89 108.504 150.914 108.504 156.478 115.077L218.875 188.768L352.522 30.9291C358.086 24.357 367.11 24.357 372.674 30.9291L392.826 54.7297C398.391 61.3018 398.391 71.9577 392.826 78.5304L228.951 272.071C223.386 278.643 214.363 278.643 208.799 272.07V272.07Z" fill="#40a9ff"/>
<path d="M107.799 272.07L15.1736 162.678C9.60881 156.106 9.60881 145.45 15.1736 138.878L35.3256 115.077C40.8904 108.504 49.9135 108.504 55.4783 115.077L117.875 188.768L251.522 30.9291C257.086 24.357 266.11 24.357 271.674 30.9291L291.826 54.7297C297.391 61.3018 297.391 71.9577 291.826 78.5304L127.951 272.071C122.386 278.643 113.363 278.643 107.799 272.07V272.07Z" fill="#40a9ff"/>
</svg>
